{"title":"X-Men.Days.of.Future.Past.2014.720p.HDRip.IPTV.READNFO.NOSUBS.x2","uid":10807973,"size":3264527769,"categoryP":"video","categoryS":"hd___movies","magnet":"?xt=urn:btih:bedc9cf2ffb0b3f6b8ac07b091832ebbb255d30b&amp;dn=X-Men.Days.of.Future.Past.2014.720p.HDRip.IPTV.READNFO.NOSUBS.x2&amp;tr=udp%3A%2F%2Ftracker.openbittorrent.com%3A80&amp;tr=udp%3A%2F%2Fopen.demonii.com%3A1337&amp;tr=udp%3A%2F%2Ftracker.coppersurfer.tk%3A6969&amp;tr=udp%3A%2F%2Fexodus.desync.com%3A6969","seeders":2,"leechers":0,"uploader":null,"files":1,"time":1408397226,"description":"Source: KORSUB IPTV 720p .mkv (thx)\n\nREADNFO:\n\nFirstly, so turns out the problem with the stutter everyone is experiencing is because of some limitation of the mkv container and the frame rate the broadcast was captured at, remuxing this into mp4 with subler managed to do the trick for me... \n\nThen, just so everyone knows, the source is the BROADCAST version of the film - normally studios make them specifically in 16:9, and if the movie was shot in 16:9 and then cropped to 2.35:1 for the theatrical release, they usually open the mattes - think IMAX Blu-ray versions of films like Hunger Games 2 or TDKR. This was shot in a variety of aspect ratios (most in 16:9, some in 2.40:1) and then all cropped to whatever aspect ratio was needed (for the broadcast version - 16:9, for theatrical/DVD/Blu-ray - 2.35:1). So it's pretty safe to crop the image from 16:9 to 2.40:1 to crop out the subs completely while still keeping the theatrical framing - crop is different in some bits due to the 12 coming up in the top right and the location on screen titles. Compare the screenshots to the trailers :) \n\nSo if we get audio fixed up, remove that 12, and get foreign subs for 52-54 mins then we have a good version till retail/legit WEB-DL ;)\n\nSCREENS: &lt;a href=&quot;\nhttp://i.imgur.com/e4gaJti.png&quot; rel=&quot;nofollow&quot; target=&quot;_NEW&quot;&gt;\nhttp://i.imgur.com/e4gaJti.png&lt;/a&gt; &lt;a href=&quot;\nhttp://i.imgur.com/z7jOmAn.png&quot; rel=&quot;nofollow&quot; target=&quot;_NEW&quot;&gt;\nhttp://i.imgur.com/z7jOmAn.png&lt;/a&gt; &lt;a href=&quot;\nhttp://i.imgur.com/IBJCil5.png&quot; rel=&quot;nofollow&quot; target=&quot;_NEW&quot;&gt;\nhttp://i.imgur.com/IBJCil5.png&lt;/a&gt; &lt;a href=&quot;\nhttp://i.imgur.com/rU4UEEC.png&quot; rel=&quot;nofollow&quot; target=&quot;_NEW&quot;&gt;\nhttp://i.imgur.com/rU4UEEC.png&lt;/a&gt; &lt;a href=&quot;\nhttp://i.imgur.com/8t9kEMT.png&quot; rel=&quot;nofollow&quot; target=&quot;_NEW&quot;&gt;\nhttp://i.imgur.com/8t9kEMT.png&lt;/a&gt; &lt;a href=&quot;\nhttp://i.imgur.com/7AgYO5s.png&quot; rel=&quot;nofollow&quot; target=&quot;_NEW&quot;&gt;\nhttp://i.imgur.com/7AgYO5s.png&lt;/a&gt; &lt;a href=&quot;\nhttp://i.imgur.com/E8Urips.png&quot; rel=&quot;nofollow&quot; target=&quot;_NEW&quot;&gt;\nhttp://i.imgur.com/E8Urips.png&lt;/a&gt;\n\nGeneral\nComplete name                    : X-Men.Days.of.Future.Past.2014.720p.HDRip.IPTV.READNFO.NOSUBS.x264.AAC-P2P.mp4\nFormat                           : MPEG-4\nFormat profile                   : Base Media / Version 2\nCodec ID                         : mp42\nFile size                        : 3.04 GiB\nDuration                         : 2h 11mn\nOverall bit rate                 : 3 319 Kbps\nEncoded date                     : UTC 2014-08-18 18:48:09\nTagged date                      : UTC 2014-08-18 18:53:08\nï¿½TIM                             : 00:00:00:00\nï¿½TSC                             : 30000\nï¿½TSZ                             : 1001\n\nVideo\nID                               : 1\nFormat                           : AVC\nFormat/Info                      : Advanced Video Codec\nFormat profile                   : &lt;a class=&quot;__cf_email__&quot; href=&quot;/cdn-cgi/l/email-protection&quot; data-cfemail=&quot;cd80aca4a38d81fee3ff&quot;&gt;[email&amp;#160;protected]&lt;/a&gt;&lt;script cf-hash='f9e31' type=&quot;text/javascript&quot;&gt;\n/* &lt;![CDATA[ */!function(){try{var t=&quot;currentScript&quot;in document?document.currentScript:function(){for(var t=document.getElementsByTagName(&quot;script&quot;),e=t.length;e--;)if(t[e].getAttribute(&quot;cf-hash&quot;))return t[e]}();if(t&amp;&amp;t.previousSibling){var e,r,n,i,c=t.previousSibling,a=c.getAttribute(&quot;data-cfemail&quot;);if(a){for(e=&quot;&quot;,r=parseInt(a.substr(0,2),16),n=2;a.length-n;n+=2)i=parseInt(a.substr(n,2),16)^r,e+=String.fromCharCode(i);e=document.createTextNode(e),c.parentNode.replaceChild(e,c)}}}catch(u){}}();/* ]]&gt; */&lt;/script&gt;\nFormat settings, CABAC           : Yes\nFormat settings, ReFrames        : 3 frames\nCodec ID                         : avc1\nCodec ID/Info                    : Advanced Video Coding\nDuration                         : 2h 11mn\nBit rate mode                    : Variable\nBit rate                         : 2 997 Kbps\nMaximum bit rate                 : 5 000 Kbps\nWidth                            : 1 280 pixels\nHeight                           : 528 pixels\nDisplay aspect ratio             : 2.40:1\nFrame rate mode                  : Constant\nFrame rate                       : 29.970 fps\nStandard                         : NTSC\nColor space                      : YUV\nChroma subsampling               : 4:2:0\nBit depth                        : 8 bits\nScan type                        : Progressive\nBits/(Pixel*Frame)               : 0.148\nStream size                      : 2.75 GiB (90%)\nLanguage                         : English\nEncoded date                     : UTC 2014-08-18 18:48:09\nTagged date                      : UTC 2014-08-18 18:48:09\n\nAudio\nID                               : 2\nFormat                           : AAC\nFormat/Info                      : Advanced Audio Codec\nFormat profile                   : LC\nCodec ID                         : 40\nDuration                         : 2h 11mn\nBit rate mode                    : Variable\nBit rate                         : 317 Kbps\nMaximum bit rate                 : 468 Kbps\nChannel(s)                       : 2 channels\nChannel positions                : Front: L R\nSampling rate                    : 48.0 KHz\nCompression mode                 : Lossy\nStream size                      : 298 MiB (10%)\nLanguage                         : English\nEncoded date                     : UTC 2014-08-18 18:48:09\nTagged date                      : UTC 2014-08-18 18:48:09\n","torrent":{"xt":"urn:btih:bedc9cf2ffb0b3f6b8ac07b091832ebbb255d30b","amp;dn":"X-Men.Days.of.Future.Past.2014.720p.HDRip.IPTV.READNFO.NOSUBS.x2","amp;tr":["udp%3A%2F%2Ftracker.openbittorrent.com%3A80","udp%3A%2F%2Fopen.demonii.com%3A1337","udp%3A%2F%2Ftracker.coppersurfer.tk%3A6969","udp%3A%2F%2Fexodus.desync.com%3A6969"],"infoHash":"bedc9cf2ffb0b3f6b8ac07b091832ebbb255d30b","infoHashBuffer":{"type":"Buffer","data":[190,220,156,242,255,176,179,246,184,172,7,176,145,131,46,187,178,85,211,11]},"announce":[],"urlList":[]}}